<?xml version="1.0" standalone="no"?>
<!DOCTYPE svg PUBLIC "-//W3C//DTD SVG 20010904//EN"
 "http://www.w3.org/TR/2001/REC-SVG-20010904/DTD/svg10.dtd">
<svg version="1.0" xmlns="http://www.w3.org/2000/svg"
 width="892.000000pt" height="1280.000000pt" viewBox="0 0 892.000000 1280.000000"
 preserveAspectRatio="xMidYMid meet">
<metadata>
Created by potrace 1.15, written by Peter Selinger 2001-2017
</metadata>
<g transform="translate(0.000000,1280.000000) scale(0.100000,-0.100000)"
fill="#795548" stroke="none">
<path d="M5738 12785 c-30 -17 -91 -113 -189 -301 -112 -213 -167 -365 -268
-744 -11 -41 -31 -118 -45 -170 -131 -493 -187 -969 -166 -1410 13 -261 23
-363 66 -630 100 -623 318 -1188 605 -1570 181 -241 356 -369 505 -370 153 0
300 142 340 329 19 91 17 156 -7 274 -29 145 -64 226 -294 680 -228 448 -297
597 -390 832 -103 260 -177 524 -205 730 -14 109 -57 402 -80 560 -77 513 -67
728 60 1310 22 105 52 249 66 320 13 72 27 140 29 153 6 26 8 25 -27 7z"/>
<path d="M1880 11679 c-13 -54 -12 -66 20 -279 47 -314 108 -513 295 -965 163
-394 292 -638 500 -950 345 -517 833 -997 1365 -1340 334 -216 666 -347 982
-387 173 -22 329 28 395 125 65 96 77 197 38 312 -64 189 -178 319 -396 452
-59 37 -143 80 -709 371 -446 229 -762 431 -987 631 -143 128 -706 700 -798
811 -165 198 -288 415 -475 829 -91 203 -207 441 -214 441 -2 0 -10 -23 -16
-51z"/>
<path d="M1635 9631 c-94 -15 -221 -67 -309 -125 -361 -240 -479 -731 -264
-1099 52 -89 171 -214 263 -276 284 -190 637 -186 926 9 70 48 193 180 238
254 126 211 147 504 51 742 -42 106 -92 178 -177 261 -116 112 -229 178 -377
219 -60 17 -280 26 -351 15z"/>
<path d="M760 8010 c-56 -10 -110 -32 -178 -73 -49 -30 -54 -36 -75 -102 -16
-52 -22 -95 -22 -165 0 -90 2 -99 39 -175 101 -209 440 -448 886 -622 372
-146 693 -236 1045 -293 39 -6 84 -13 100 -16 192 -31 509 -42 723 -25 64 6
187 15 272 21 85 6 211 15 280 20 69 5 197 14 285 20 175 12 271 25 325 42
l35 11 -51 17 c-59 20 -114 30 -404 70 -526 74 -762 121 -1011 203 -459 152
-744 287 -1129 537 -394 256 -538 345 -655 406 -194 102 -353 144 -465 124z"/>
<path d="M3370 6354 c-351 -69 -595 -304 -676 -650 -21 -91 -20 -268 1 -359
55 -232 227 -441 458 -553 338 -165 743 -70 997 233 56 68 125 212 150 315 43
183 20 401 -60 565 -97 198 -295 364 -510 425 -74 21 -298 36 -360 24z"/>
<path d="M5053 5486 c-58 -22 -206 -107 -218 -126 -13 -21 -17 -189 -5 -245
15 -75 36 -115 97 -187 198 -236 652 -418 1313 -528 124 -20 326 -40 565 -56
413 -27 640 0 1325 156 237 54 374 84 530 116 118 23 250 72 250 92 0 16 -157
22 -600 22 -472 0 -632 10 -895 55 -521 89 -731 160 -1540 525 -399 180 -661
236 -822 176z"/>
<path d="M1221 5475 c-94 -30 -177 -105 -217 -200 -49 -115 13 -328 136 -469
117 -133 244 -222 524 -363 767 -386 1042 -548 1321 -776 145 -119 780 -762
891 -902 195 -246 343 -513 533 -961 54 -127 107 -224 148 -273 l28 -33 -7
108 c-22 343 -79 592 -219 954 -230 594 -391 912 -646 1278 -177 253 -425 539
-643 740 -137 125 -406 344 -540 438 -383 268 -731 415 -1083 459 -145 18
-168 18 -226 0z"/>
<path d="M309 5327 c-148 -42 -271 -190 -300 -362 -16 -95 -5 -266 25 -390 30
-121 64 -219 166 -475 90 -225 287 -816 324 -970 32 -132 81 -405 95 -530 33
-290 44 -1117 17 -1342 -29 -248 -38 -283 -226 -863 -63 -194 -120 -388 -115
-393 24 -24 160 148 323 408 166 266 449 1016 552 1465 150 658 169 1294 59
1944 -67 395 -144 669 -254 896 -55 113 -188 327 -261 417 -129 159 -277 231
-405 195z"/>
</g>
</svg>
